<?xml version="1.0" encoding="UTF-8"?>
<svg width="64pt" height="54.408pt" style="isolation:isolate" viewBox="0 0 64 54.408" xmlns="http://www.w3.org/2000/svg">
<defs>
<clipPath id="a">
<rect width="64" height="54.408"/>
</clipPath>
</defs>
<g clip-path="url(#a)">
<rect x="31.508" y="11.413" width="27.569" height="11.159" fill="#fff"/>
<path d="m6.564 47.844c-2.428 0-4.543-1.322-5.679-3.282-0.559 0.966-0.885 2.085-0.885 3.282 0 3.625 2.939 6.564 6.564 6.564h6.564v-6.564h-6.564z" fill="#ff001b"/>
<path d="m36.096 13.177l22.981-1.436v-3.282c0-3.625-2.939-6.564-6.564-6.564h-29.538l-0.821-1.421c-0.365-0.632-1.276-0.632-1.641 0l-0.821 1.421-0.82-1.421c-0.365-0.632-1.276-0.632-1.641 0l-0.821 1.421-0.82-1.421c-0.365-0.632-1.276-0.632-1.641 0l-0.821 1.421c-7e-3 0-0.014 1e-3 -0.021 1e-3l-1.359-1.359c-0.516-0.516-1.396-0.28-1.585 0.425l-0.449 1.675-1.705-0.457c-0.704-0.189-1.349 0.456-1.16 1.16l0.457 1.705-1.675 0.448c-0.705 0.189-0.941 1.07-0.425 1.586l1.359 1.359c0 7e-3 -1e-3 0.014-1e-3 0.021l-1.421 0.821c-0.632 0.364-0.632 1.276 0 1.641l1.421 0.82-1.421 0.821c-0.632 0.364-0.632 1.276 0 1.641l1.421 0.82-1.421 0.821c-0.632 0.364-0.632 1.276 0 1.641l1.421 0.82-1.421 0.821c-0.632 0.364-0.632 1.276 0 1.641l1.421 0.82-1.421 0.821c-0.632 0.364-0.632 1.276 0 1.641l1.421 0.82-1.421 0.821c-0.632 0.364-0.632 1.276 0 1.641l1.421 0.82-1.421 0.821c-0.632 0.365-0.632 1.276 0 1.641l1.421 0.82-1.421 0.821c-0.632 0.365-0.632 1.276 0 1.641l1.421 0.82-1.421 0.821c-0.632 0.365-0.632 1.276 0 1.641l1.421 0.821-1.421 0.82c-0.632 0.365-0.632 1.276 0 1.641l1.421 0.821-1.421 0.82c-0.632 0.365-0.632 1.276 0 1.641l1.421 0.821-1.421 0.82c-0.632 0.365-0.632 1.277 0 1.641l1.421 0.821c0 3.625 2.939 6.564 6.564 6.564h39.385c3.625 0 6.564-2.939 6.564-6.564v-26.257l-22.981-1.436c-1.841-0.115-3.275-1.642-3.275-3.487s1.434-3.371 3.275-3.487z" fill="#ca6996"/>
<path d="m45.949 54.408h9.846v-13.128h-9.846v13.128z" fill="#3ecc5f"/>
<path d="m62.359 46.203c-0.072 0-0.14 0.012-0.21 0.021-0.012-0.05-0.024-0.099-0.038-0.148 0.593-0.248 1.009-0.832 1.009-1.514 0-0.907-0.734-1.641-1.641-1.641-0.373 0-0.713 0.13-0.989 0.34-0.037-0.037-0.073-0.074-0.11-0.111 0.205-0.274 0.331-0.611 0.331-0.98 0-0.906-0.734-1.641-1.641-1.641-0.677 0-1.259 0.411-1.509 0.998-0.049-0.014-0.098-0.025-0.146-0.038 9e-3 -0.069 0.021-0.138 0.021-0.209 0-0.907-0.735-1.641-1.641-1.641-0.907 0-1.641 0.734-1.641 1.641 0 0.071 0.012 0.14 0.021 0.209-0.049 0.013-0.098 0.024-0.146 0.038-0.25-0.587-0.832-0.998-1.51-0.998-0.906 0-1.641 0.735-1.641 1.641 0 0.369 0.126 0.706 0.332 0.98-1.22 1.192-1.979 2.853-1.979 4.694 0 3.625 2.939 6.564 6.564 6.564 3.065 0 5.632-2.104 6.354-4.944 0.07 9e-3 0.138 0.021 0.21 0.021 0.906 0 1.641-0.735 1.641-1.641 0-0.907-0.735-1.641-1.641-1.641z" fill="#ff001b"/>
<path d="m49.231 34.715h9.846v-6.564h-9.846v6.564z" fill="#3ecc5f"/>
<path d="m62.359 32.254c0.453 0 0.82-0.367 0.82-0.821 0-0.453-0.367-0.82-0.82-0.82-0.036 0-0.07 6e-3 -0.105 0.01-6e-3 -0.024-0.012-0.049-0.019-0.073 0.296-0.124 0.505-0.417 0.505-0.758 0-0.453-0.368-0.82-0.821-0.82-0.187 0-0.357 0.065-0.495 0.17-0.018-0.019-0.036-0.037-0.055-0.055 0.103-0.137 0.166-0.306 0.166-0.491 0-0.452-0.367-0.82-0.82-0.82-0.339 0-0.63 0.206-0.755 0.499-0.281-0.078-0.577-0.124-0.883-0.124-1.812 0-3.282 1.47-3.282 3.282 0 1.813 1.47 3.282 3.282 3.282 0.306 0 0.602-0.045 0.883-0.123 0.125 0.293 0.416 0.499 0.755 0.499 0.453 0 0.82-0.368 0.82-0.821 0-0.184-0.063-0.353-0.166-0.49 0.019-0.018 0.037-0.036 0.055-0.055 0.138 0.105 0.308 0.17 0.495 0.17 0.453 0 0.821-0.367 0.821-0.821 0-0.341-0.209-0.633-0.505-0.757 7e-3 -0.024 0.013-0.049 0.019-0.074 0.035 5e-3 0.069 0.011 0.105 0.011z" fill="#ff001b"/>
<path d="m19.692 12.562c-0.453 0-0.82-0.368-0.82-0.821 0-1.357-1.104-2.461-2.462-2.461-1.357 0-2.461 1.104-2.461 2.461 0 0.453-0.368 0.821-0.821 0.821s-0.82-0.368-0.82-0.821c0-2.262 1.84-4.102 4.102-4.102 2.263 0 4.103 1.84 4.103 4.102 0 0.453-0.367 0.821-0.821 0.821z"/>
<path d="m32.821 54.408h19.692c3.625 0 6.564-2.939 6.564-6.564v-22.975h-19.692c-3.626 0-6.564 2.939-6.564 6.564v22.975z" fill="#ff87ad"/>
<path d="m54.16 35.044h-16.423c-0.181 0-0.328-0.147-0.328-0.329 0-0.181 0.147-0.328 0.328-0.328h16.423c0.182 0 0.328 0.147 0.328 0.328 0 0.182-0.146 0.329-0.328 0.329z"/>
<path d="m54.16 41.608h-16.423c-0.181 0-0.328-0.147-0.328-0.328 0-0.182 0.147-0.329 0.328-0.329h16.423c0.182 0 0.328 0.147 0.328 0.329 0 0.181-0.146 0.328-0.328 0.328z"/>
<path d="m54.16 48.172h-16.423c-0.181 0-0.328-0.147-0.328-0.328 0-0.182 0.147-0.329 0.328-0.329h16.423c0.182 0 0.328 0.147 0.328 0.329 0 0.181-0.146 0.328-0.328 0.328z"/>
<path d="m54.16 31.823h-16.423c-0.181 0-0.328-0.148-0.328-0.329s0.147-0.328 0.328-0.328h16.423c0.182 0 0.328 0.147 0.328 0.328s-0.146 0.329-0.328 0.329z"/>
<path d="m54.16 38.326h-16.423c-0.181 0-0.328-0.147-0.328-0.328 0-0.182 0.147-0.329 0.328-0.329h16.423c0.182 0 0.328 0.147 0.328 0.329 0 0.181-0.146 0.328-0.328 0.328z"/>
<path d="m54.16 44.89h-16.423c-0.181 0-0.328-0.147-0.328-0.328 0-0.182 0.147-0.329 0.328-0.329h16.423c0.182 0 0.328 0.147 0.328 0.329 0 0.181-0.146 0.328-0.328 0.328z"/>
<path d="m59.077 14.567c-4e-3 0-7e-3 -2e-3 -0.011-1e-3 -1.014 0.034-1.494 1.049-1.918 1.944-0.441 0.935-0.783 1.543-1.343 1.525-0.62-0.022-0.974-0.723-1.35-1.464-0.431-0.851-0.923-1.817-1.957-1.781-1 0.034-1.481 0.917-1.906 1.696-0.452 0.83-0.759 1.334-1.352 1.311-0.633-0.023-0.969-0.592-1.358-1.252-0.433-0.733-0.935-1.558-1.948-1.53-0.983 0.034-1.465 0.783-1.891 1.444-0.451 0.699-0.767 1.125-1.367 1.1-0.648-0.024-0.982-0.496-1.369-1.043-0.435-0.615-0.925-1.311-1.935-1.277-0.961 0.033-1.444 0.646-1.87 1.188-0.404 0.513-0.72 0.919-1.388 0.894-0.181-8e-3 -0.333 0.135-0.339 0.316-7e-3 0.181 0.135 0.333 0.316 0.34 0.99 0.033 1.491-0.591 1.927-1.144 0.386-0.491 0.72-0.915 1.376-0.937 0.632-0.027 0.929 0.366 1.377 0.999 0.426 0.602 0.909 1.285 1.881 1.32 1.018 0.034 1.508-0.727 1.942-1.401 0.388-0.602 0.723-1.121 1.362-1.143 0.589-0.022 0.909 0.443 1.361 1.208 0.425 0.721 0.907 1.538 1.899 1.574 1.026 0.035 1.521-0.86 1.952-1.652 0.374-0.686 0.727-1.333 1.352-1.355 0.589-0.013 0.896 0.524 1.35 1.421 0.424 0.838 0.904 1.788 1.911 1.824 0.019 1e-3 0.038 1e-3 0.056 1e-3 1.006 0 1.483-1.009 1.905-1.902 0.374-0.791 0.728-1.536 1.335-1.566v-0.657z"/>
<path d="m26.256 54.408h13.129v-13.128h-13.129v13.128z" fill="#ca6996"/>
<path d="m45.949 46.203c-0.072 0-0.141 0.012-0.21 0.021-0.012-0.05-0.024-0.099-0.038-0.148 0.593-0.248 1.009-0.832 1.009-1.514 0-0.907-0.734-1.641-1.641-1.641-0.373 0-0.714 0.13-0.99 0.34-0.036-0.037-0.073-0.074-0.11-0.111 0.206-0.274 0.332-0.611 0.332-0.98 0-0.906-0.734-1.641-1.641-1.641-0.678 0-1.259 0.411-1.509 0.998-0.049-0.014-0.098-0.025-0.146-0.038 8e-3 -0.069 0.021-0.138 0.021-0.209 0-0.907-0.735-1.641-1.641-1.641-0.907 0-1.641 0.734-1.641 1.641 0 0.071 0.012 0.14 0.021 0.209-0.049 0.013-0.098 0.024-0.146 0.038-0.251-0.587-0.832-0.998-1.51-0.998-0.906 0-1.641 0.735-1.641 1.641 0 0.369 0.126 0.706 0.332 0.98-1.22 1.192-1.979 2.853-1.979 4.694 0 3.625 2.938 6.564 6.564 6.564 3.065 0 5.632-2.104 6.354-4.944 0.069 9e-3 0.138 0.021 0.21 0.021 0.906 0 1.641-0.735 1.641-1.641 0-0.907-0.735-1.641-1.641-1.641z" fill="#ff001b"/>
<path d="m26.256 34.715h13.129v-6.564h-13.129v6.564z" fill="#ca6996"/>
<path d="m42.667 32.254c0.453 0 0.82-0.367 0.82-0.821 0-0.453-0.367-0.82-0.82-0.82-0.036 0-0.071 6e-3 -0.105 0.01-7e-3 -0.024-0.012-0.049-0.019-0.073 0.296-0.124 0.504-0.417 0.504-0.758 0-0.453-0.367-0.82-0.82-0.82-0.187 0-0.357 0.065-0.495 0.17-0.018-0.019-0.036-0.037-0.055-0.055 0.103-0.137 0.166-0.306 0.166-0.491 0-0.452-0.367-0.82-0.821-0.82-0.339 0-0.629 0.206-0.755 0.499-0.281-0.078-0.576-0.124-0.882-0.124-1.813 0-3.282 1.47-3.282 3.282 0 1.813 1.469 3.282 3.282 3.282 0.306 0 0.601-0.045 0.882-0.123 0.126 0.293 0.416 0.499 0.755 0.499 0.454 0 0.821-0.368 0.821-0.821 0-0.184-0.063-0.353-0.166-0.49 0.019-0.018 0.037-0.036 0.055-0.055 0.138 0.105 0.308 0.17 0.495 0.17 0.453 0 0.82-0.367 0.82-0.821 0-0.341-0.208-0.633-0.504-0.757 7e-3 -0.024 0.012-0.049 0.019-0.074 0.034 5e-3 0.069 0.011 0.105 0.011z" fill="#ff001b"/>
<path d="m45.949 8.049c-0.053 0-0.109-7e-3 -0.161-0.017-0.053-9e-3 -0.105-0.026-0.154-0.046-0.05-0.019-0.096-0.045-0.142-0.075-0.042-0.03-0.085-0.066-0.125-0.102-0.035-0.039-0.071-0.079-0.101-0.124-0.029-0.046-0.056-0.092-0.076-0.142-0.019-0.049-0.036-0.101-0.045-0.154-0.01-0.052-0.017-0.108-0.017-0.161 0-0.052 7e-3 -0.108 0.017-0.161 9e-3 -0.052 0.026-0.101 0.045-0.154 0.02-0.049 0.047-0.095 0.076-0.141 0.03-0.043 0.066-0.085 0.101-0.125 0.04-0.036 0.083-0.072 0.125-0.101 0.046-0.03 0.092-0.056 0.142-0.076 0.049-0.02 0.101-0.036 0.154-0.046 0.105-0.023 0.213-0.023 0.322 0 0.052 0.01 0.105 0.026 0.154 0.046s0.095 0.046 0.141 0.076c0.043 0.029 0.085 0.065 0.125 0.101 0.036 0.04 0.072 0.082 0.101 0.125 0.03 0.046 0.056 0.092 0.076 0.141 0.02 0.053 0.036 0.102 0.046 0.154 9e-3 0.053 0.016 0.109 0.016 0.161 0 0.217-0.089 0.43-0.239 0.581-0.04 0.036-0.082 0.072-0.125 0.102-0.046 0.03-0.092 0.056-0.141 0.075-0.049 0.02-0.102 0.037-0.154 0.046-0.053 0.01-0.109 0.017-0.161 0.017z"/>
<path d="m52.513 7.639c-0.217 0-0.427-0.089-0.581-0.24-0.036-0.039-0.072-0.082-0.102-0.125-0.029-0.046-0.056-0.092-0.076-0.141-0.019-0.049-0.035-0.102-0.045-0.154-0.01-0.053-0.017-0.108-0.017-0.161 0-0.217 0.089-0.427 0.24-0.581 0.039-0.036 0.082-0.072 0.124-0.102 0.047-0.029 0.093-0.055 0.142-0.075s0.101-0.036 0.154-0.046c0.105-0.023 0.217-0.023 0.322 0 0.052 0.01 0.105 0.026 0.154 0.046s0.095 0.046 0.141 0.075c0.043 0.03 0.085 0.066 0.125 0.102 0.15 0.154 0.239 0.364 0.239 0.581 0 0.053-7e-3 0.108-0.016 0.161-0.01 0.052-0.026 0.105-0.046 0.154-0.023 0.049-0.046 0.095-0.076 0.141-0.029 0.043-0.065 0.086-0.101 0.125-0.04 0.036-0.082 0.072-0.125 0.102-0.046 0.029-0.092 0.056-0.141 0.075-0.049 0.02-0.102 0.036-0.154 0.046-0.053 0.01-0.109 0.017-0.161 0.017z"/>
</g>
</svg>
